<svg xmlns="http://www.w3.org/2000/svg" width="1200" height="630" viewBox="0 0 1200 630" role="img" aria-labelledby="title desc">
  <title id="title">Wellness Nourish Telegram demo</title>
  <desc id="desc">A Telegram conversation where Hermes uses Wellness Nourish to estimate a Brazilian meal, check protein remaining, and ask for confirmation before logging.</desc>
  <defs>
    <linearGradient id="bg" x1="0" y1="0" x2="1" y2="1">
      <stop offset="0" stop-color="#052e2b"/>
      <stop offset="0.52" stop-color="#0f172a"/>
      <stop offset="1" stop-color="#1e1b4b"/>
    </linearGradient>
    <filter id="shadow" x="-20%" y="-20%" width="140%" height="140%">
      <feDropShadow dx="0" dy="16" stdDeviation="18" flood-color="#020617" flood-opacity="0.45"/>
    </filter>
  </defs>
  <rect width="1200" height="630" fill="url(#bg)"/>
  <circle cx="1040" cy="110" r="170" fill="#10b981" opacity="0.14"/>
  <circle cx="150" cy="520" r="190" fill="#fbbf24" opacity="0.10"/>

  <text x="72" y="86" fill="#f8fafc" font-family="Inter, Segoe UI, Arial, sans-serif" font-size="44" font-weight="850">Wellness Nourish</text>
  <text x="72" y="126" fill="#a7f3d0" font-family="Inter, Segoe UI, Arial, sans-serif" font-size="22" font-weight="650">Nutrition MCP for agents: food, barcode, hydration, goals and confirmation-safe logging</text>

  <g filter="url(#shadow)">
    <rect x="86" y="170" width="500" height="368" rx="28" fill="#0b1220" stroke="#164e63"/>
    <rect x="86" y="170" width="500" height="62" rx="28" fill="#0f766e"/>
    <text x="122" y="209" fill="#ecfeff" font-family="Inter, Segoe UI, Arial, sans-serif" font-size="22" font-weight="800">Telegram with Hermes</text>

    <rect x="124" y="266" width="318" height="56" rx="18" fill="#0f766e"/>
    <text x="148" y="300" fill="#ecfeff" font-family="Inter, Segoe UI, Arial, sans-serif" font-size="17">Log my lunch: rice, beans, chicken</text>

    <rect x="214" y="348" width="318" height="116" rx="18" fill="#111827" stroke="#334155"/>
    <text x="238" y="380" fill="#f8fafc" font-family="Inter, Segoe UI, Arial, sans-serif" font-size="17" font-weight="700">Estimated before logging</text>
    <text x="238" y="410" fill="#d1fae5" font-family="Inter, Segoe UI, Arial, sans-serif" font-size="17">~560 kcal · 42g protein</text>
    <text x="238" y="438" fill="#d1fae5" font-family="Inter, Segoe UI, Arial, sans-serif" font-size="17">confidence 0.82 · pt-BR parsed</text>

    <rect x="124" y="486" width="176" height="42" rx="16" fill="#0f766e"/>
    <text x="148" y="513" fill="#ecfeff" font-family="Inter, Segoe UI, Arial, sans-serif" font-size="17">yes, save it</text>
  </g>

  <g filter="url(#shadow)">
    <rect x="660" y="170" width="454" height="368" rx="28" fill="#111827" stroke="#1f2937"/>
    <text x="700" y="220" fill="#f8fafc" font-family="Inter, Segoe UI, Arial, sans-serif" font-size="26" font-weight="850">Agent tool sequence</text>
    <text x="700" y="252" fill="#99f6e4" font-family="Inter, Segoe UI, Arial, sans-serif" font-size="17">always estimates first, writes only after intent</text>

    <g font-family="Inter, Segoe UI, Arial, sans-serif" font-size="18" font-weight="750">
      <rect x="700" y="292" width="326" height="46" rx="14" fill="#134e4a"/>
      <text x="724" y="322" fill="#f0fdfa">nourish_estimate_meal</text>
      <rect x="700" y="356" width="326" height="46" rx="14" fill="#134e4a"/>
      <text x="724" y="386" fill="#f0fdfa">nourish_daily_summary</text>
      <rect x="700" y="420" width="326" height="46" rx="14" fill="#134e4a"/>
      <text x="724" y="450" fill="#f0fdfa">ask for confirmation</text>
      <rect x="700" y="484" width="326" height="46" rx="14" fill="#065f46"/>
      <text x="724" y="514" fill="#f0fdfa">nourish_log_intake</text>
    </g>
  </g>

  <rect x="72" y="570" width="1056" height="38" rx="16" fill="#020617" opacity="0.70"/>
  <text x="102" y="595" fill="#e2e8f0" font-family="Inter, Segoe UI, Arial, sans-serif" font-size="18" font-weight="700">Designed for daily personal use through agents, with local persistence and explicit user intent before writes.</text>
</svg>
